<svg xmlns="http://www.w3.org/2000/svg" xmlns:xlink="http://www.w3.org/1999/xlink" viewBox="0 0 479.65 37.13"><defs><style>.cls-1{isolation:isolate;}.cls-2{fill:#6187c4;}.cls-3{fill:#f2e725;}.cls-4{fill:#b14411;}.cls-5{opacity:0.92;fill:url(#Degradado_sin_nombre_4);}.cls-5,.cls-7{mix-blend-mode:luminosity;}.cls-6,.cls-8{fill:#fff;}.cls-7{opacity:0.35;fill:url(#Degradado_sin_nombre_32);}.cls-8{opacity:0.1;}</style><radialGradient id="Degradado_sin_nombre_4" cx="18.66" cy="18.39" r="3.34" gradientUnits="userSpaceOnUse"><stop offset="0" stop-color="#fff"/><stop offset="1"/></radialGradient><linearGradient id="Degradado_sin_nombre_32" x1="18.56" y1="37.13" x2="18.56" gradientUnits="userSpaceOnUse"><stop offset="0" stop-color="#fff"/><stop offset="0.08" stop-color="#ccc"/><stop offset="0.17" stop-color="#9c9c9c"/><stop offset="0.26" stop-color="#727272"/><stop offset="0.36" stop-color="#4f4f4f"/><stop offset="0.46" stop-color="#323232"/><stop offset="0.57" stop-color="#1c1c1c"/><stop offset="0.68" stop-color="#0c0c0c"/><stop offset="0.81" stop-color="#030303"/><stop offset="1"/></linearGradient></defs><g class="cls-1"><g id="Capa_2" data-name="Capa 2"><g id="Navegador"><circle cx="18.56" cy="18.56" r="18.56"/><path class="cls-2" d="M36.15,20.62a8,8,0,0,0-1.6-2.71,12.94,12.94,0,0,0-2.37-2.06,23,23,0,0,0-5.65-2.76,31.6,31.6,0,0,0-6.14-1.41,20,20,0,0,0-6.23,0,10.56,10.56,0,0,0-2.92,1,7.34,7.34,0,0,0-2.37,1.87,5.25,5.25,0,0,0-1.19,2.69A4.08,4.08,0,0,0,8.38,20a4.25,4.25,0,0,0,2.36,1.68,7.27,7.27,0,0,0,3,.18,5.46,5.46,0,0,0,2.7-1.22,6.32,6.32,0,0,0,1.76-2.41,6.14,6.14,0,0,1,1.94-2.68,6.34,6.34,0,0,1,3-1.31,7.63,7.63,0,0,1,3.29.17,4.73,4.73,0,0,1,2.67,2,5.15,5.15,0,0,1,.67,1.54,4.53,4.53,0,0,1,.11,1.68,5.94,5.94,0,0,1-1.34,3,7.81,7.81,0,0,1-2.57,2,11.2,11.2,0,0,1-3.08,1,20.5,20.5,0,0,1-6.4,0A30.64,30.64,0,0,1,10.34,24a22.37,22.37,0,0,1-5.66-2.93A12.61,12.61,0,0,1,2.34,19,7.85,7.85,0,0,1,.81,16.16H.87a7.8,7.8,0,0,0,1.55,2.73A13.14,13.14,0,0,0,4.78,21a22.7,22.7,0,0,0,5.65,2.79,30.84,30.84,0,0,0,6.15,1.42,20,20,0,0,0,6.27,0,10.83,10.83,0,0,0,2.94-1,7.26,7.26,0,0,0,2.39-1.89,5.37,5.37,0,0,0,1.2-2.75,4.33,4.33,0,0,0-.72-2.83A4.12,4.12,0,0,0,26.3,15a7.14,7.14,0,0,0-3-.14,5.83,5.83,0,0,0-2.74,1.19,5.6,5.6,0,0,0-1.74,2.4A6.31,6.31,0,0,1,18,19.93a6.88,6.88,0,0,1-1.13,1.22,6.07,6.07,0,0,1-3,1.38,8.44,8.44,0,0,1-1.66.08,7.69,7.69,0,0,1-1.64-.27,5,5,0,0,1-2.72-1.93A4.79,4.79,0,0,1,7,17.16a6,6,0,0,1,1.33-3.05,7.9,7.9,0,0,1,2.6-2,11.35,11.35,0,0,1,3.1-1,20.69,20.69,0,0,1,6.43,0,30.22,30.22,0,0,1,6.21,1.56,22,22,0,0,1,5.66,3,13.13,13.13,0,0,1,2.33,2.2A7.71,7.71,0,0,1,36.15,20.62Z"/><path class="cls-3" d="M20.73.74A7.88,7.88,0,0,0,18,2.33,13.34,13.34,0,0,0,16,4.7a23.31,23.31,0,0,0-2.76,5.65,32.32,32.32,0,0,0-1.4,6.14,19.78,19.78,0,0,0,0,6.24,11,11,0,0,0,1,2.92A7.44,7.44,0,0,0,14.65,28a5.26,5.26,0,0,0,2.7,1.2,4.11,4.11,0,0,0,2.79-.71,4.16,4.16,0,0,0,1.67-2.36,7.06,7.06,0,0,0,.19-3,5.4,5.4,0,0,0-1.23-2.7,6.26,6.26,0,0,0-2.4-1.76,6.22,6.22,0,0,1-4-5,7.74,7.74,0,0,1,.16-3.28,4.69,4.69,0,0,1,2-2.68A5,5,0,0,1,18,7.07,4.46,4.46,0,0,1,19.71,7a5.86,5.86,0,0,1,3,1.33,7.84,7.84,0,0,1,2,2.57,11.66,11.66,0,0,1,1,3.08,20.5,20.5,0,0,1,0,6.4,30.9,30.9,0,0,1-1.54,6.2,22.78,22.78,0,0,1-2.92,5.65,13.08,13.08,0,0,1-2.17,2.35,8,8,0,0,1-2.78,1.52l0,0A7.83,7.83,0,0,0,19,34.46a12.67,12.67,0,0,0,2.1-2.35,22.63,22.63,0,0,0,2.8-5.66A30.84,30.84,0,0,0,25.3,20.3a20.28,20.28,0,0,0,0-6.27,11.18,11.18,0,0,0-1-2.94,7.26,7.26,0,0,0-1.9-2.39,5.33,5.33,0,0,0-2.74-1.19,4.29,4.29,0,0,0-2.84.71,4.18,4.18,0,0,0-1.69,2.36,7.14,7.14,0,0,0-.14,3,5.77,5.77,0,0,0,1.18,2.74,5.61,5.61,0,0,0,2.41,1.74A6.18,6.18,0,0,1,20,18.9,6.85,6.85,0,0,1,21.26,20a6.17,6.17,0,0,1,1.38,3,8.29,8.29,0,0,1,.07,1.65,7.11,7.11,0,0,1-.27,1.64,4.84,4.84,0,0,1-1.93,2.72,4.77,4.77,0,0,1-3.24.82,5.89,5.89,0,0,1-3-1.33,7.74,7.74,0,0,1-2-2.59,11.53,11.53,0,0,1-1-3.11,20.39,20.39,0,0,1,0-6.43,30.19,30.19,0,0,1,1.55-6.21,22,22,0,0,1,3-5.66,12.35,12.35,0,0,1,2.19-2.32A7.46,7.46,0,0,1,20.73.74Z"/><path class="cls-4" d="M34.67,17.82a13.13,13.13,0,0,0-2.33-2.2,22,22,0,0,0-5.66-3,30.22,30.22,0,0,0-6.21-1.56,20.69,20.69,0,0,0-6.43,0,11.35,11.35,0,0,0-3.1,1,7.9,7.9,0,0,0-2.6,2A6,6,0,0,0,7,17.16a4.79,4.79,0,0,0,.82,3.25,5,5,0,0,0,2.72,1.93,7.69,7.69,0,0,0,1.64.27,8.44,8.44,0,0,0,1.66-.08,6.07,6.07,0,0,0,3-1.38A6.88,6.88,0,0,0,18,19.93c.18-.25.52-.85.67-1.12l-.58-.25a5.14,5.14,0,0,1-1.63,2.11,5.46,5.46,0,0,1-2.7,1.22,7.27,7.27,0,0,1-3-.18A4.25,4.25,0,0,1,8.38,20a4.08,4.08,0,0,1-.7-2.79,5.25,5.25,0,0,1,1.19-2.69,7.34,7.34,0,0,1,2.37-1.87,10.56,10.56,0,0,1,2.92-1,20,20,0,0,1,6.23,0,31.6,31.6,0,0,1,6.14,1.41,23,23,0,0,1,5.65,2.76,12.94,12.94,0,0,1,2.37,2.06,8,8,0,0,1,1.6,2.71A7.71,7.71,0,0,0,34.67,17.82Z"/><circle class="cls-5" cx="18.66" cy="18.39" r="3.34"/><circle class="cls-6" cx="8.63" cy="6.14" r="0.11"/><circle class="cls-6" cx="10.33" cy="6.93" r="0.11"/><circle class="cls-6" cx="20.54" cy="12.87" r="0.11"/><circle class="cls-6" cx="20.43" cy="22.47" r="0.11"/><circle class="cls-6" cx="6.22" cy="9.38" r="0.11"/><circle class="cls-6" cx="5.47" cy="19.27" r="0.11"/><circle class="cls-6" cx="10.33" cy="9.86" r="0.11"/><circle class="cls-6" cx="3.05" cy="22.36" r="0.11"/><circle class="cls-6" cx="18.34" cy="23.91" r="0.11"/><circle class="cls-6" cx="16.18" cy="27.52" r="0.11"/><circle class="cls-6" cx="16.07" cy="33.78" r="0.11"/><circle class="cls-6" cx="18.66" cy="31.93" r="0.11"/><circle class="cls-6" cx="10.94" cy="29.73" r="0.11"/><circle class="cls-6" cx="6.11" cy="27.63" r="0.11"/><circle class="cls-6" cx="25.04" cy="32.3" r="0.11"/><circle class="cls-6" cx="25.64" cy="26.8" r="0.11"/><circle class="cls-6" cx="20.57" cy="34" r="0.11"/><circle class="cls-6" cx="9.36" cy="32.05" r="0.11"/><circle class="cls-6" cx="13.23" cy="16.73" r="0.11"/><circle class="cls-6" cx="6.22" cy="12.63" r="0.11"/><circle class="cls-6" cx="3.05" cy="16.05" r="0.11"/><circle class="cls-6" cx="5.69" cy="24.02" r="0.11"/><circle class="cls-6" cx="9.14" cy="25.49" r="0.11"/><circle class="cls-6" cx="12.5" cy="5.92" r="0.11"/><circle class="cls-6" cx="29.73" cy="16.62" r="0.11"/><circle class="cls-6" cx="34.16" cy="13.59" r="0.11"/><circle class="cls-6" cx="27.88" cy="19.49" r="0.11"/><circle class="cls-6" cx="26.04" cy="22.36" r="0.11"/><circle class="cls-6" cx="22.8" cy="6.25" r="0.11"/><circle class="cls-6" cx="26.98" cy="9.97" r="0.11"/><circle class="cls-6" cx="26.61" cy="5.81" r="0.11"/><circle class="cls-6" cx="30.98" cy="10.84" r="0.11"/><circle class="cls-6" cx="23.34" cy="17.68" r="0.11"/><circle class="cls-6" cx="17.42" cy="13.48" r="0.11"/><circle class="cls-6" cx="29.95" cy="23.49" r="0.11"/><circle class="cls-6" cx="33.64" cy="23.14" r="0.11"/><circle class="cls-6" cx="28.3" cy="29.28" r="0.11"/><circle class="cls-6" cx="10.94" cy="3.85" r="0.11"/><circle class="cls-6" cx="22.69" cy="3.11" r="0.11"/><circle class="cls-6" cx="26.61" cy="3" r="0.11"/><circle class="cls-7" cx="18.56" cy="18.56" r="18.56"/><path class="cls-6" d="M62.7,20.58v1.8a8.5,8.5,0,0,1-4.16,1,6.33,6.33,0,0,1-3.25-.77,5.62,5.62,0,0,1-2.11-2.11,5.75,5.75,0,0,1-.77-2.92,5.58,5.58,0,0,1,1.77-4.2,6.09,6.09,0,0,1,4.39-1.7,10.21,10.21,0,0,1,4,.94v1.76a7.79,7.79,0,0,0-3.92-1.15,4.54,4.54,0,0,0-3.26,1.24,4.13,4.13,0,0,0-1.29,3.11,4.08,4.08,0,0,0,1.27,3.09,4.6,4.6,0,0,0,3.27,1.21A7.44,7.44,0,0,0,62.7,20.58Z"/><path class="cls-6" d="M74.67,11.64a6.12,6.12,0,0,1,4.41,1.68,5.54,5.54,0,0,1,1.76,4.2,5.47,5.47,0,0,1-1.78,4.19,6.32,6.32,0,0,1-4.48,1.65,6,6,0,0,1-4.3-1.65,5.52,5.52,0,0,1-1.72-4.15,5.63,5.63,0,0,1,1.73-4.24A6,6,0,0,1,74.67,11.64Zm.07,1.55a4.44,4.44,0,0,0-3.23,1.23,4.19,4.19,0,0,0-1.26,3.14,4.08,4.08,0,0,0,1.27,3.07,4.7,4.7,0,0,0,6.36,0,4.22,4.22,0,0,0,1.28-3.12,4.11,4.11,0,0,0-1.28-3.06A4.36,4.36,0,0,0,74.74,13.19Z"/><path class="cls-6" d="M96.3,11.8h1.53V23.23H96.18V14.34l-3.51,4.42h-.3l-3.56-4.42v8.89H87.18V11.8h1.55l3.79,4.7Z"/><path class="cls-6" d="M104.66,11.8h1.64V23.23h-1.64Z"/><path class="cls-6" d="M116,18.44l-1.24-.75a5.76,5.76,0,0,1-1.67-1.41,2.65,2.65,0,0,1-.49-1.59,2.81,2.81,0,0,1,.93-2.19,3.53,3.53,0,0,1,2.44-.84,4.62,4.62,0,0,1,2.62.8v1.86A3.79,3.79,0,0,0,116,13.13a2.16,2.16,0,0,0-1.31.37,1.11,1.11,0,0,0-.52.95,1.48,1.48,0,0,0,.38,1,4.92,4.92,0,0,0,1.22.94l1.25.74a3.64,3.64,0,0,1,2.09,3.18,2.88,2.88,0,0,1-.92,2.23,3.32,3.32,0,0,1-2.39.86,5,5,0,0,1-3.08-1V20.24a3.83,3.83,0,0,0,3.06,1.68A1.93,1.93,0,0,0,117,21.5a1.36,1.36,0,0,0,.51-1.08Q117.52,19.38,116,18.44Z"/><path class="cls-6" d="M125.23,11.8h1.64V23.23h-1.64Z"/><path class="cls-6" d="M139.37,11.64a6.16,6.16,0,0,1,4.41,1.68,5.58,5.58,0,0,1,1.76,4.2,5.47,5.47,0,0,1-1.78,4.19,6.32,6.32,0,0,1-4.48,1.65,6,6,0,0,1-4.3-1.65,5.52,5.52,0,0,1-1.72-4.15A5.63,5.63,0,0,1,135,13.32,6,6,0,0,1,139.37,11.64Zm.06,1.55a4.43,4.43,0,0,0-3.22,1.23A4.19,4.19,0,0,0,135,17.56a4.11,4.11,0,0,0,1.26,3.07,4.71,4.71,0,0,0,6.37,0,4.22,4.22,0,0,0,1.28-3.12,4.11,4.11,0,0,0-1.28-3.06A4.39,4.39,0,0,0,139.43,13.19ZM141,8.51,139.19,11h-.91l1.1-2.45Z"/><path class="cls-6" d="M161,11.8h1.55V23.23h-1.4l-7.64-8.8v8.8H152V11.8h1.32L161,20.68Z"/><path class="cls-6" d="M188.2,20.58v1.8a8.46,8.46,0,0,1-4.15,1,6.33,6.33,0,0,1-3.25-.77,5.62,5.62,0,0,1-2.11-2.11,5.76,5.76,0,0,1-.78-2.92,5.59,5.59,0,0,1,1.78-4.2,6.09,6.09,0,0,1,4.39-1.7,10.25,10.25,0,0,1,4,.94v1.76a7.82,7.82,0,0,0-3.92-1.15,4.52,4.52,0,0,0-3.26,1.24,4.13,4.13,0,0,0-1.29,3.11,4.08,4.08,0,0,0,1.27,3.09,4.59,4.59,0,0,0,3.27,1.21A7.4,7.4,0,0,0,188.2,20.58Z"/><path class="cls-6" d="M200.18,11.64a6.16,6.16,0,0,1,4.41,1.68,5.58,5.58,0,0,1,1.76,4.2,5.47,5.47,0,0,1-1.78,4.19,6.32,6.32,0,0,1-4.48,1.65,6,6,0,0,1-4.31-1.65,5.56,5.56,0,0,1-1.72-4.15,5.64,5.64,0,0,1,1.74-4.24A6,6,0,0,1,200.18,11.64Zm.06,1.55A4.43,4.43,0,0,0,197,14.42a4.19,4.19,0,0,0-1.26,3.14A4.11,4.11,0,0,0,197,20.63a4.38,4.38,0,0,0,3.17,1.23,4.42,4.42,0,0,0,3.2-1.25,4.22,4.22,0,0,0,1.28-3.12,4.11,4.11,0,0,0-1.28-3.06A4.39,4.39,0,0,0,200.24,13.19Z"/><path class="cls-6" d="M212.72,11.8h1.63v9.94h5.15v1.49h-6.78Z"/><path class="cls-6" d="M230.89,11.64a6.12,6.12,0,0,1,4.41,1.68,5.55,5.55,0,0,1,1.77,4.2,5.51,5.51,0,0,1-1.78,4.19,6.35,6.35,0,0,1-4.49,1.65,6,6,0,0,1-4.3-1.65,5.52,5.52,0,0,1-1.72-4.15,5.67,5.67,0,0,1,1.73-4.24A6.05,6.05,0,0,1,230.89,11.64Zm.07,1.55a4.41,4.41,0,0,0-3.22,1.23,4.16,4.16,0,0,0-1.27,3.14,4.12,4.12,0,0,0,1.27,3.07,4.7,4.7,0,0,0,6.36,0,4.22,4.22,0,0,0,1.28-3.12,4.11,4.11,0,0,0-1.28-3.06A4.36,4.36,0,0,0,231,13.19Z"/><path class="cls-6" d="M252.52,11.8h1.53V23.23h-1.64V14.34l-3.52,4.42h-.3L245,14.34v8.89H243.4V11.8H245l3.8,4.7Z"/><path class="cls-6" d="M264.74,23.23h-3.87V11.8h3a5.09,5.09,0,0,1,2.21.39,2.72,2.72,0,0,1,1.63,2.58A2.5,2.5,0,0,1,266,17.19a3.54,3.54,0,0,1,2,1,2.7,2.7,0,0,1,.74,1.9,2.79,2.79,0,0,1-.45,1.56,3.27,3.27,0,0,1-1.32,1.12A4.87,4.87,0,0,1,264.74,23.23Zm-.83-10h-1.4V16.7h1.08a2.74,2.74,0,0,0,1.86-.5,1.69,1.69,0,0,0,.56-1.3C266,13.81,265.31,13.26,263.91,13.26Zm.12,4.89h-1.52v3.63h1.61a5.24,5.24,0,0,0,1.82-.21,1.8,1.8,0,0,0,.77-.65,1.74,1.74,0,0,0,.29-1,1.66,1.66,0,0,0-.31-1,1.88,1.88,0,0,0-.87-.65A5.55,5.55,0,0,0,264,18.15Z"/><path class="cls-6" d="M274.67,11.8h1.64V23.23h-1.64Z"/><path class="cls-6" d="M286.85,11.74H288l5.12,11.49h-1.67l-1.53-3.38h-4.87l-1.43,3.38h-1.68Zm2.4,6.65-1.84-4.14-1.71,4.14Z"/><path class="cls-6" d="M307.81,11.8h1.55V23.23H308l-7.64-8.8v8.8h-1.54V11.8h1.32l7.71,8.88Z"/><path class="cls-6" d="M319.81,11.74H321l5.13,11.49h-1.68l-1.52-3.38H318l-1.42,3.38h-1.68Zm2.41,6.65-1.85-4.14-1.71,4.14Z"/><path class="cls-6" d="M340.72,23.22V11.8h3.85a8.19,8.19,0,0,1,3.69.7,5.29,5.29,0,0,1,2.16,2.06,5.67,5.67,0,0,1,.8,3,5.63,5.63,0,0,1-1.7,4,5.53,5.53,0,0,1-1.94,1.23,5.82,5.82,0,0,1-1.18.34,15.18,15.18,0,0,1-2.06.09Zm3.68-10h-2v8.5h2.09a8.53,8.53,0,0,0,1.91-.17,4.46,4.46,0,0,0,1.13-.42,4.28,4.28,0,0,0,.83-.64,4.22,4.22,0,0,0,1.21-3.1,3.92,3.92,0,0,0-1.24-3,4,4,0,0,0-1.05-.71,4.25,4.25,0,0,0-1.13-.37A11.36,11.36,0,0,0,344.4,13.26Z"/><path class="cls-6" d="M357.62,11.8h6.48v1.46h-4.84v3.49h4.68v1.46h-4.68v3.55h5v1.46h-6.64Z"/><path class="cls-6" d="M370.36,11.8H372v9.94h5.15v1.49h-6.78Z"/><path class="cls-6" d="M391.93,11.8h6.48v1.46h-4.84v3.49h4.68v1.46h-4.68v3.55h5v1.46h-6.64Z"/><path class="cls-6" d="M407.5,18.44l-1.25-.75a5.69,5.69,0,0,1-1.66-1.41,2.66,2.66,0,0,1-.5-1.59A2.82,2.82,0,0,1,405,12.5a3.52,3.52,0,0,1,2.43-.84,4.65,4.65,0,0,1,2.63.8v1.86a3.79,3.79,0,0,0-2.66-1.19,2.21,2.21,0,0,0-1.32.37,1.13,1.13,0,0,0-.51.95,1.48,1.48,0,0,0,.38,1,4.73,4.73,0,0,0,1.22.94l1.25.74a3.66,3.66,0,0,1,2.09,3.18,2.91,2.91,0,0,1-.92,2.23,3.32,3.32,0,0,1-2.39.86,5,5,0,0,1-3.09-1V20.24a3.87,3.87,0,0,0,3.07,1.68,2,2,0,0,0,1.28-.42,1.36,1.36,0,0,0,.51-1.08Q409,19.38,407.5,18.44Z"/><path class="cls-6" d="M416.61,23.23V11.79h3.62a3.73,3.73,0,0,1,2.61.88,3,3,0,0,1,1,2.37,3.11,3.11,0,0,1-.5,1.77A2.88,2.88,0,0,1,422,17.93a7,7,0,0,1-2.49.34h-1.21v5Zm3.33-10h-1.69v3.58H420a2.29,2.29,0,0,0,1.54-.47,1.7,1.7,0,0,0,.54-1.35C422.12,13.83,421.39,13.24,419.94,13.24Z"/><path class="cls-6" d="M431.9,11.74h1.15l5.12,11.49H436.5L435,19.85H430.1l-1.43,3.38H427Zm2.4,6.65-1.84-4.14-1.71,4.14Z"/><path class="cls-6" d="M453,20.58v1.8a8.5,8.5,0,0,1-4.16,1,6.33,6.33,0,0,1-3.25-.77,5.76,5.76,0,0,1-2.88-5,5.55,5.55,0,0,1,1.78-4.2,6.05,6.05,0,0,1,4.38-1.7,10.21,10.21,0,0,1,4,.94v1.76a7.79,7.79,0,0,0-3.91-1.15,4.51,4.51,0,0,0-3.26,1.24,4.11,4.11,0,0,0-1.3,3.11,4.05,4.05,0,0,0,1.28,3.09,4.56,4.56,0,0,0,3.26,1.21A7.44,7.44,0,0,0,453,20.58Z"/><path class="cls-6" d="M459.34,11.8H461V23.23h-1.64Z"/><path class="cls-6" d="M473.48,11.64a6.16,6.16,0,0,1,4.41,1.68,5.58,5.58,0,0,1,1.76,4.2,5.51,5.51,0,0,1-1.78,4.19,6.34,6.34,0,0,1-4.48,1.65,6,6,0,0,1-4.31-1.65,5.52,5.52,0,0,1-1.72-4.15,5.67,5.67,0,0,1,1.73-4.24A6.06,6.06,0,0,1,473.48,11.64Zm.06,1.55a4.41,4.41,0,0,0-3.22,1.23,4.2,4.2,0,0,0-1.27,3.14,4.12,4.12,0,0,0,1.27,3.07,4.7,4.7,0,0,0,6.36,0A4.18,4.18,0,0,0,478,17.49a4.08,4.08,0,0,0-1.28-3.06A4.36,4.36,0,0,0,473.54,13.19Z"/><ellipse class="cls-8" cx="18.66" cy="9.33" rx="13.45" ry="9.23"/></g></g></g></svg>